<?xml version="1.0" encoding="utf-8"?>
<!-- Generator: Adobe Illustrator 21.0.2, SVG Export Plug-In . SVG Version: 6.00 Build 0)  -->
<svg version="1.1" id="Layer_1" xmlns="http://www.w3.org/2000/svg" xmlns:xlink="http://www.w3.org/1999/xlink" x="0px" y="0px"
	 viewBox="0 0 436.3 234.2" style="enable-background:new 0 0 436.3 234.2;" xml:space="preserve">
<style type="text/css">
	.st0{fill:#00ADEF;}
	.st1{fill:#383A35;}
</style>
<g>
	<path class="st0" d="M303.5,62.6V38.4c0-2.6,2.1-4.8,4.8-4.8h23.3c2.6,0,4.8,2.1,4.8,4.8v24.1c0,2.6-2.1,4.8-4.8,4.8h-23.3
		C305.6,67.3,303.5,65.2,303.5,62.6"/>
	<path class="st0" d="M303.5,129.9v-24.1c0-2.6,2.1-4.8,4.8-4.8h23.3c2.6,0,4.8,2.1,4.8,4.8v24.1c0,2.6-2.1,4.8-4.8,4.8h-23.3
		C305.6,134.6,303.5,132.5,303.5,129.9"/>
	<path class="st0" d="M196.4,33.7h-91.5c-2.3,0-4.2,1.6-4.7,3.8c-0.1,0.3-0.1,0.6-0.1,1v91.5c0,2.6,2.1,4.8,4.8,4.8h24.1
		c2.6,0,4.8-2.1,4.8-4.8V79.3c0-7.1,4.8-11.9,10.3-11.9h52.3c2.6,0,4.8-2.1,4.8-4.8V38.4C201.2,35.8,199,33.7,196.4,33.7z"/>
	<path class="st0" d="M269,38.4c0-2.6-2.1-4.8-4.8-4.8h-24.1c-2.6,0-4.8,2.1-4.8,4.8v50.5c0,0.1,0,0.2,0,0.3
		c0,7.1-2.8,11.8-11.5,11.8h-51c-2.6,0-4.8,2.1-4.8,4.8v24.1c0,2.6,2.1,4.8,4.8,4.8h91.5c2.3,0,4.2-1.6,4.7-3.8
		c0.1-0.3,0.1-0.6,0.1-1V38.4z"/>
</g>
<g>
	<g>
		<path class="st1" d="M223.1,168.2h-6.4c-0.2,0-0.5,0.1-0.6,0.3c-0.2,0.2-0.3,0.4-0.3,0.6v10.3c0,0.2-0.1,0.5-0.2,0.6
			c-0.2,0.2-0.4,0.3-0.6,0.3h-9.1c-0.6,0-0.9-0.3-0.9-0.9v-10.3c0-0.6-0.3-0.9-0.9-0.9h-6.4c-0.6,0-0.9,0.3-0.9,0.9v30.6
			c0,0.6,0.3,0.9,0.9,0.9h6.4c0.6,0,0.9-0.3,0.9-0.9V189c0-0.2,0.1-0.4,0.3-0.6c0.2-0.2,0.4-0.2,0.6-0.2h9.1c0.2,0,0.4,0.1,0.6,0.2
			c0.2,0.2,0.2,0.4,0.2,0.6v10.7c0,0.2,0.1,0.5,0.3,0.6c0.2,0.2,0.4,0.3,0.6,0.3h6.4c0.2,0,0.5-0.1,0.6-0.3c0.2-0.2,0.3-0.4,0.3-0.6
			v-30.6c0-0.2-0.1-0.5-0.3-0.6C223.6,168.3,223.4,168.2,223.1,168.2z"/>
	</g>
	<g>
		<path class="st1" d="M191.7,168.2h-17.6h-0.8c-0.7,0-1.4,0.1-2.1,0.4c-0.7,0.3-1.2,0.7-1.7,1.2c-0.5,0.5-0.9,1-1.2,1.7
			c-0.3,0.7-0.4,1.4-0.4,2.1v3.6v3v10.8v3.4v0.8c0,0.7,0.1,1.4,0.4,2.1c0.3,0.7,0.7,1.2,1.2,1.7c0.5,0.5,1.1,0.9,1.7,1.2
			c0.7,0.3,1.4,0.4,2.1,0.4h0.8h17.6c0.2,0,0.5-0.1,0.6-0.3c0.2-0.2,0.3-0.4,0.3-0.6v-6.1c0-0.2-0.1-0.5-0.3-0.6
			c-0.2-0.2-0.4-0.3-0.6-0.3h-14.8c-0.2,0-0.5-0.1-0.6-0.2c-0.2-0.2-0.3-0.4-0.3-0.6v-15c0-0.2,0.1-0.4,0.3-0.6
			c0.2-0.2,0.4-0.2,0.6-0.2h14.8c0.2,0,0.5-0.1,0.6-0.3s0.3-0.4,0.3-0.6v-6.1c0-0.2-0.1-0.5-0.3-0.6
			C192.2,168.3,192,168.2,191.7,168.2z"/>
	</g>
	<g>
		<path class="st1" d="M134.8,168.2h-22.9c-0.6,0-0.9,0.3-0.9,0.9v6.1c0,0.2,0.1,0.5,0.3,0.6c0.2,0.2,0.4,0.3,0.6,0.3h6.6
			c0.2,0,0.4,0.1,0.6,0.2c0.2,0.2,0.2,0.4,0.2,0.6v22.8c0,0.2,0.1,0.5,0.3,0.6c0.2,0.2,0.4,0.3,0.6,0.3h6.4c0.2,0,0.4-0.1,0.6-0.3
			c0.2-0.2,0.2-0.4,0.2-0.6v-22.8c0-0.2,0.1-0.4,0.3-0.6c0.2-0.2,0.4-0.2,0.6-0.2h6.6c0.2,0,0.5-0.1,0.6-0.3
			c0.2-0.2,0.3-0.4,0.3-0.6v-6.1c0-0.2-0.1-0.5-0.3-0.6C135.3,168.3,135.1,168.2,134.8,168.2z"/>
	</g>
	<g>
		<path class="st1" d="M253.9,169.8c-0.5-0.5-1-0.9-1.7-1.2c-0.7-0.3-1.4-0.4-2.1-0.4h-20.9c-0.6,0-0.9,0.3-0.9,0.9v30.6
			c0,0.6,0.3,0.9,0.9,0.9h6.4c0.6,0,0.9-0.3,0.9-0.9v-22.8c0-0.2,0.1-0.4,0.3-0.6c0.2-0.2,0.4-0.2,0.6-0.2h9.1
			c0.2,0,0.5,0.1,0.6,0.2c0.2,0.2,0.3,0.4,0.3,0.6v22.8c0,0.2,0.1,0.5,0.2,0.6c0.2,0.2,0.4,0.3,0.6,0.3h6.4c0.2,0,0.5-0.1,0.6-0.3
			c0.2-0.2,0.3-0.4,0.3-0.6v-26c0-0.7-0.1-1.4-0.4-2.1C254.7,170.9,254.4,170.3,253.9,169.8z"/>
	</g>
	<g>
		<path class="st1" d="M162.9,168.2h-18.4c-0.7,0-1.4,0.1-2.1,0.4c-0.7,0.3-1.2,0.7-1.7,1.2c-0.5,0.5-0.9,1-1.2,1.7
			c-0.3,0.7-0.4,1.4-0.4,2.1v21.5c0,0.7,0.1,1.4,0.4,2.1c0.3,0.7,0.7,1.2,1.2,1.7c0.5,0.5,1.1,0.9,1.7,1.2c0.7,0.3,1.4,0.4,2.1,0.4
			h18.4c0.2,0,0.5-0.1,0.6-0.3c0.2-0.2,0.3-0.4,0.3-0.6v-5.8c0-0.2-0.1-0.5-0.3-0.6c-0.2-0.2-0.4-0.3-0.6-0.3h-15.5
			c-0.2,0-0.2-0.1-0.2-0.2v-5c0-0.2,0.1-0.2,0.2-0.2h13.2c0.6,0,0.9-0.3,0.9-0.9v-4.6c0-0.2-0.1-0.5-0.3-0.6
			c-0.2-0.2-0.4-0.3-0.6-0.3h-13.2c-0.2,0-0.2-0.1-0.2-0.2v-5c0-0.2,0.1-0.2,0.2-0.2h15.5c0.2,0,0.5-0.1,0.6-0.2
			c0.2-0.2,0.3-0.4,0.3-0.6v-5.8c0-0.2-0.1-0.5-0.3-0.6C163.3,168.3,163.1,168.2,162.9,168.2z"/>
	</g>
	<g>
		<path class="st1" d="M341.1,169.8c-0.5-0.5-1-0.9-1.7-1.2c-0.7-0.3-1.4-0.4-2.1-0.4h-16.3c-0.7,0-1.4,0.1-2.1,0.4
			c-0.7,0.3-1.2,0.7-1.7,1.2c-0.5,0.5-0.9,1-1.2,1.7c-0.3,0.7-0.4,1.4-0.4,2.1v21.5c0,0.7,0.1,1.4,0.4,2.1c0.3,0.7,0.7,1.2,1.2,1.7
			c0.5,0.5,1.1,0.9,1.7,1.2c0.7,0.3,1.4,0.4,2.1,0.4h16.3c0.7,0,1.4-0.1,2.1-0.4c0.7-0.3,1.2-0.7,1.7-1.2c0.5-0.5,0.9-1.1,1.2-1.7
			c0.3-0.7,0.4-1.4,0.4-2.1v-21.5c0-0.7-0.1-1.4-0.4-2.1C341.9,170.9,341.6,170.3,341.1,169.8z M334.5,192.7h-10.8v-16.6h10.8V192.7
			z"/>
	</g>
	<g>
		<path class="st1" d="M285.2,169.8c-0.5-0.5-1-0.9-1.7-1.2c-0.7-0.3-1.4-0.4-2.1-0.4h-16.3c-0.7,0-1.4,0.1-2.1,0.4
			c-0.7,0.3-1.2,0.7-1.7,1.2c-0.5,0.5-0.9,1-1.2,1.7c-0.3,0.7-0.4,1.4-0.4,2.1v21.5c0,0.7,0.1,1.4,0.4,2.1c0.3,0.7,0.7,1.2,1.2,1.7
			c0.5,0.5,1.1,0.9,1.7,1.2c0.7,0.3,1.4,0.4,2.1,0.4h16.3c0.7,0,1.4-0.1,2.1-0.4c0.7-0.3,1.2-0.7,1.7-1.2c0.5-0.5,0.9-1.1,1.2-1.7
			c0.3-0.7,0.4-1.4,0.4-2.1v-21.5c0-0.7-0.1-1.4-0.4-2.1C286.1,170.9,285.7,170.3,285.2,169.8z M278.6,192.7h-10.8v-16.6h10.8V192.7
			z"/>
	</g>
	<g>
		<path class="st1" d="M403.2,168.5c-0.2-0.2-0.4-0.3-0.6-0.3h-6.1c-0.6,0-0.9,0.3-0.9,0.9v13.8c0,0.6-0.3,0.9-0.9,0.9h-8.5
			c-0.2,0-0.4-0.1-0.6-0.3c-0.2-0.2-0.2-0.4-0.2-0.6v-13.8c0-0.2-0.1-0.5-0.3-0.6c-0.2-0.2-0.4-0.3-0.6-0.3h-6.1
			c-0.6,0-0.9,0.3-0.9,0.9v16.5c0,0.7,0.1,1.4,0.4,2.1c0.3,0.7,0.7,1.2,1.2,1.7c0.5,0.5,1.1,0.9,1.7,1.2c0.7,0.3,1.4,0.4,2.1,0.4
			h3.5v8.7c0,0.2,0.1,0.5,0.2,0.6c0.2,0.2,0.4,0.3,0.6,0.3h6.4c0.2,0,0.5-0.1,0.6-0.3c0.2-0.2,0.3-0.4,0.3-0.6V191h3.5
			c0.7,0,1.4-0.1,2.1-0.4c0.7-0.3,1.2-0.7,1.7-1.2c0.5-0.5,0.9-1,1.2-1.7c0.3-0.7,0.4-1.4,0.4-2.1v-16.5
			C403.4,168.9,403.3,168.7,403.2,168.5z"/>
	</g>
	<g>
		<path class="st1" d="M373.1,182.9h-6.4c-0.2,0-0.5,0.1-0.6,0.3c-0.2,0.2-0.3,0.4-0.3,0.6v8.1c0,0.2-0.1,0.4-0.2,0.6
			c-0.2,0.2-0.4,0.2-0.6,0.2h-9.1c-0.2,0-0.5-0.1-0.6-0.2c-0.2-0.2-0.3-0.4-0.3-0.6v-15c0-0.2,0.1-0.4,0.3-0.6
			c0.2-0.2,0.4-0.2,0.6-0.2h15.5c0.2,0,0.5-0.1,0.6-0.3c0.2-0.2,0.3-0.4,0.3-0.6v-6.1c0-0.2-0.1-0.5-0.3-0.6
			c-0.2-0.2-0.4-0.3-0.6-0.3h-19.1c-0.7,0-1.4,0.1-2.1,0.4c-0.7,0.3-1.2,0.7-1.7,1.2c-0.5,0.5-0.9,1-1.2,1.7
			c-0.3,0.7-0.4,1.4-0.4,2.1v21.5c0,0.7,0.1,1.4,0.4,2.1c0.3,0.7,0.7,1.2,1.2,1.7c0.5,0.5,1.1,0.9,1.7,1.2c0.7,0.3,1.4,0.4,2.1,0.4
			h16.3c0.7,0,1.4-0.1,2.1-0.4c0.7-0.3,1.2-0.7,1.7-1.2c0.5-0.5,0.9-1.1,1.2-1.7c0.3-0.7,0.4-1.4,0.4-2.1v-11.4
			c0-0.2-0.1-0.5-0.3-0.6S373.3,182.9,373.1,182.9z"/>
	</g>
	<g>
		<path class="st1" d="M311.8,192.7H300c-0.2,0-0.5-0.1-0.6-0.2c-0.2-0.2-0.3-0.4-0.3-0.6v-22.8c0-0.6-0.3-0.9-0.9-0.9h-6.4
			c-0.6,0-0.9,0.3-0.9,0.9v30.6c0,0.6,0.3,0.9,0.9,0.9h19.9c0.2,0,0.4-0.1,0.6-0.3c0.2-0.2,0.2-0.4,0.2-0.6v-6.1
			c0-0.2-0.1-0.5-0.2-0.6C312.3,192.8,312.1,192.7,311.8,192.7z"/>
	</g>
</g>
<g>
	<path class="st0" d="M40.1,168.2h-6.4c-0.6,0-0.9,0.3-0.9,0.9v30.6c0,0.6,0.3,0.9,0.9,0.9h6.4c0.6,0,0.9-0.3,0.9-0.9v-30.6
		C41,168.5,40.7,168.2,40.1,168.2z"/>
	<path class="st0" d="M96.8,169.8c-0.5-0.5-1-0.9-1.7-1.2c-0.7-0.3-1.4-0.4-2.1-0.4H79c-0.7,0-1.4,0.1-2.1,0.4
		c-0.7,0.3-1.2,0.7-1.7,1.2c-0.5,0.5-0.9,1-1.2,1.7c-0.3,0.7-0.4,1.4-0.4,2.1v6c0,0.2,0,0.5,0.1,0.8c0.1,0.3,0.2,0.5,0.4,0.7l1,1.3
		l0.5,0.6c0.2,0.2,0.3,0.3,0.5,0.6c0.2,0.2,0.2,0.5,0.2,0.7c0,0.2-0.1,0.5-0.2,0.7c-0.2,0.2-0.3,0.5-0.5,0.6l-0.4,0.5l-0.4,0.5
		l-0.6,0.6c-0.2,0.2-0.3,0.4-0.4,0.7c-0.1,0.3-0.2,0.6-0.2,0.8v6.3c0,0.7,0.1,1.4,0.4,2c0.2,0.6,0.6,1.2,1,1.6
		c0.4,0.5,1,0.9,1.5,1.2c0.6,0.3,1.2,0.5,1.9,0.6c0.1,0,0.3,0,0.6,0H93c0.2,0,0.3,0,0.4,0c0.1,0,0.3,0,0.4-0.1H94
		c0.3-0.1,0.7-0.2,0.9-0.3c0.3-0.1,0.6-0.3,0.8-0.4l0.2-0.1c0,0,0.1,0,0.1,0c0,0,0,0,0.1,0c0.1-0.1,0.1-0.1,0.1-0.1
		c0,0,0.1-0.1,0.1-0.1c0.1-0.1,0.1-0.1,0.2-0.1l0.2-0.2c0.1-0.1,0.2-0.2,0.2-0.2c0.1,0,0.2-0.1,0.2-0.2c0.1-0.1,0.1-0.2,0.2-0.3
		c0,0,0.1,0,0.1,0c0,0,0,0,0.1,0c0-0.1,0-0.1,0.1-0.2c0.1-0.2,0.2-0.4,0.3-0.6c0.1-0.1,0.1-0.2,0.1-0.3c0.1-0.3,0.2-0.5,0.2-0.8
		c0-0.1,0-0.1,0-0.2c0-0.2,0.1-0.3,0.1-0.4c0-0.1,0-0.3,0-0.4v-6.3c0-0.2-0.1-0.5-0.2-0.8c-0.1-0.3-0.2-0.5-0.4-0.7l-0.6-0.6
		l-0.4-0.5l-0.4-0.5c-0.2-0.2-0.3-0.4-0.5-0.6c-0.2-0.2-0.2-0.5-0.3-0.7c0-0.2,0.1-0.5,0.2-0.7c0.2-0.2,0.3-0.4,0.5-0.6l0.5-0.6
		l1-1.3c0.2-0.2,0.3-0.4,0.4-0.7c0.1-0.3,0.2-0.6,0.2-0.8v-6c0-0.7-0.1-1.4-0.4-2.1C97.6,170.9,97.2,170.3,96.8,169.8z M90.6,187.8
		v5.4v0.3h-9.4v-0.3v-5.4v-0.6h9.4V187.8z M90.6,176.4v3.7v0.9h-0.8h-7.7h-0.9v-0.9v-3.7v-1.2h9.4V176.4z"/>
	<path class="st0" d="M69.5,173.9v-0.2c0-0.7-0.1-1.4-0.4-2.1c-0.3-0.7-0.7-1.2-1.2-1.7c-0.5-0.5-1.1-0.9-1.7-1.2
		c-0.6-0.3-1.3-0.4-2.1-0.4H46.9c-0.2,0-0.4,0.1-0.6,0.3c-0.2,0.2-0.2,0.4-0.2,0.6v5.7c0,0.2,0.1,0.4,0.2,0.6s0.4,0.2,0.6,0.2h14.5
		c0.2,0,0.5,0.1,0.6,0.3c0.2,0.2,0.3,0.4,0.3,0.6v3.7c0,0.2-0.1,0.5-0.3,0.6c-0.2,0.2-0.4,0.3-0.6,0.3H50.5c-0.7,0-1.4,0.1-2.1,0.4
		c-0.7,0.3-1.2,0.7-1.7,1.2c-0.5,0.5-0.9,1.1-1.2,1.7c-0.3,0.6-0.4,1.3-0.4,2.1v0.3v8.4v4.5c0,0.6,0.3,0.9,0.9,0.9h22.7
		c0.2,0,0.4-0.1,0.6-0.3c0.2-0.2,0.2-0.4,0.2-0.6v-5.6c0-0.2-0.1-0.5-0.2-0.6c-0.2-0.2-0.4-0.3-0.6-0.3H54.1h-0.9
		c-0.5,0-0.7-0.2-0.8-0.7v-4.1c0.1-0.5,0.4-0.7,0.8-0.7h0.6h15c0.2,0,0.5-0.1,0.6-0.2c0.2-0.2,0.3-0.4,0.3-0.6v-11.8
		c0-0.1,0-0.1,0-0.1V173.9z"/>
</g>
</svg>
